<?xml version="1.0" standalone="no"?><!DOCTYPE svg PUBLIC "-//W3C//DTD SVG 1.1//EN" "http://www.w3.org/Graphics/SVG/1.1/DTD/svg11.dtd"><svg t="1722418276111" class="icon" viewBox="0 0 1024 1024" version="1.1" xmlns="http://www.w3.org/2000/svg" p-id="7393" xmlns:xlink="http://www.w3.org/1999/xlink" width="200" height="200"><path d="M433.7408 525.34272L139.08992 366.07488c-5.97504-3.31776-12.61056-4.64384-18.58048-4.64384-21.23264 0-41.14432 18.58048-41.14432 44.46208v311.2448c0 32.51712 16.5888 61.71648 43.8016 76.3136l294.65088 159.26784c5.97504 3.31776 12.60544 5.30944 18.58048 5.30944 21.23776 0 41.14432-19.24608 41.14432-45.12256v-311.2448c-0.00512-31.85664-16.59392-61.71648-43.8016-76.31872z m-22.56384 348.40576l-256.82432-138.7008c-3.98336-2.65728-8.6272-8.6272-8.6272-17.91488V445.04576l256.82432 138.7008c5.30944 3.31264 8.6272 10.61376 8.6272 17.91488v272.08704z m489.75872-512.32256c-5.97504 0-12.61056 1.32608-18.58048 4.64384l-294.656 159.93344c-27.20768 14.60224-43.8016 44.4672-43.8016 76.98432v309.9136c0 25.8816 19.91168 45.12256 41.14432 45.12256 5.97504 0 12.61056-1.32608 18.5856-4.64384l294.65088-159.93344c26.5472-14.60224 43.8016-43.8016 43.8016-76.3136v-311.2448c0-25.8816-19.91168-44.46208-41.14432-44.46208z m-25.22112 355.0464c0 9.28768-4.64384 15.9232-8.6272 17.91488l-256.82432 139.3664v-270.76096c0-9.2928 4.64384-15.92832 8.6272-17.92l256.82432-140.02688v271.42656z m-20.56704-423.3984c13.93664-7.30112 20.57216-19.90656 19.24608-31.85664 1.32608-12.60544-5.30944-24.5504-19.24608-31.85152l-299.96032-156.61568c-13.27616-7.30112-28.53888-10.61888-44.4672-10.61888-15.92832 0-31.19104 3.31776-45.12768 10.61888L164.9664 228.70016c-13.93664 7.30112-19.90656 19.91168-19.24608 32.51712-0.66048 11.94496 5.30944 24.55552 19.24608 31.85664L464.93184 449.024c13.27104 7.30112 29.19936 10.61888 45.12768 10.61888h1.32608c15.92832 0 31.19104-3.31776 45.12768-10.61888l298.63424-155.95008z m-345.088 100.20864c-5.30944 0-10.61888-1.32608-14.60224-3.31776L247.25504 261.21728l248.20224-129.408c3.97824-1.99168 9.28768-3.31776 15.26272-3.31776 5.30944 0 10.61888 1.32608 14.60224 3.31776l248.20224 129.408-248.86272 128.74752c-3.32288 1.98656-8.63232 3.31776-14.60224 3.31776z" p-id="7394" fill="#7F7F7F"></path></svg>