<?xml version="1.0" standalone="no"?><!DOCTYPE svg PUBLIC "-//W3C//DTD SVG 1.1//EN" "http://www.w3.org/Graphics/SVG/1.1/DTD/svg11.dtd"><svg t="1722419597266" class="icon" viewBox="0 0 1024 1024" version="1.1" xmlns="http://www.w3.org/2000/svg" p-id="18552" xmlns:xlink="http://www.w3.org/1999/xlink" width="200" height="200"><path d="M512 1024C229.6832 1024 0 794.3168 0 512S229.6832 0 512 0s512 229.6832 512 512-229.6832 512-512 512m0-950.852267C269.994667 73.147733 73.147733 269.994667 73.147733 512S269.994667 950.852267 512 950.852267 950.852267 754.005333 950.852267 512 754.005333 73.147733 512 73.147733m0 0" fill="#7F7F7F" p-id="18553"></path><path d="M512.3072 878.114133a54.852267 54.852267 0 1 1 0-109.738666 54.852267 54.852267 0 0 1 0 109.738666zM613.546667 504.183467c-31.812267 31.812267-64.648533 64.648533-64.648534 94.139733v61.883733a36.590933 36.590933 0 0 1-73.147733 0v-61.883733c0-59.835733 45.704533-105.540267 86.084267-145.851733 29.5936-29.5936 60.177067-60.177067 60.177066-84.5824 0-60.962133-49.220267-110.523733-109.704533-110.523734-61.508267 0-109.704533 47.479467-109.704533 108.066134a36.590933 36.590933 0 0 1-73.147734 0c0-99.9424 82.0224-181.248 182.852267-181.248s182.852267 82.397867 182.852267 183.7056c0 54.715733-41.506133 96.221867-81.6128 136.2944z" fill="#7F7F7F" p-id="18554"></path></svg>