<svg xmlns="http://www.w3.org/2000/svg" xmlns:xlink="http://www.w3.org/1999/xlink" fill="none" version="1.1" width="20" height="20" viewBox="0 0 16 16"><g transform="matrix(-1,0,0,1,32,0)"><g><path d="M26.57808,10.041L28.68763,7.95771C28.76773,7.87892,28.81082,7.77063,28.80646,7.65905C28.80209,7.54747,28.75067,7.44278,28.66465,7.37034C27.69218,6.54615,26.35645,6.265280000000001,25.12991,6.6152999999999995L22.9236,4.9114C22.99717,4.24817,22.76123,3.587907,22.28249,3.117255C22.12417,2.9609151,21.867539999999998,2.9609151,21.709220000000002,3.117255L19.118837,5.67605C19.0427497,5.7511600000000005,19,5.85306,19,5.95932C19,6.065580000000001,19.0427497,6.167479999999999,19.118837,6.24259C19.595127,6.71577,20.26368,6.948869999999999,20.93513,6.87588L22.59791,8.97706C22.155450000000002,10.23029,22.42033,11.65493,23.300910000000002,12.66867C23.37442,12.75339,23.48038,12.80397,23.59326,12.80823C23.70614,12.81248,23.81569,12.77003,23.89553,12.6911L26.00454,10.60727L28.308419999999998,12.88306C28.38762,12.96102,28.4914,13,28.594920000000002,13C28.758789999999998,12.99986,28.90646,12.90229,28.96915,12.75273C29.0318,12.60317,28.99722,12.43105,28.88142,12.31652L26.57781,10.041L26.57808,10.041Z" fill="#000000" fill-opacity="0.6499999761581421"/></g><g transform="matrix(-0.7145040035247803,0.6996313333511353,0.6996313333511353,0.7145040035247803,46.42207159579266,-18.94328371452866)"><rect x="28.30029296875" y="3" width="14" height="0.800000011920929" rx="0.4000000059604645" fill="#555759" fill-opacity="1"/></g></g></svg>