<?xml version="1.0" standalone="no"?>
<!DOCTYPE svg PUBLIC "-//W3C//DTD SVG 1.1//EN" "http://www.w3.org/Graphics/SVG/1.1/DTD/svg11.dtd">
<svg t="1722418130020" class="icon" viewBox="0 0 1024 1024" version="1.1" xmlns="http://www.w3.org/2000/svg" p-id="5471" xmlns:xlink="http://www.w3.org/1999/xlink" width="200" height="200">
<path d="M432.014222 640h543.971556a48.64 48.64 0 0 0 48.014222-48.014222V432.014222a48.64 48.64 0 0 0-48.014222-48.014222H432.014222a48.64 48.64 0 0 0-48.014222 48.014222v47.957334H256V256h335.985778a48.64 48.64 0 0 0 48.014222-48.014222V48.014222A48.64 48.64 0 0 0 591.985778 0H48.014222A48.64 48.64 0 0 0 0 48.014222v159.971556c0.341333 26.396444 21.617778 47.672889 48.014222 48.014222h143.985778v584.988444c0 52.963556 43.008 95.971556 96.028444 95.971556H384v39.025778c0.341333 26.396444 21.617778 47.672889 48.014222 48.014222h543.971556a48.64 48.64 0 0 0 48.014222-48.014222v-159.971556a48.64 48.64 0 0 0-48.014222-48.014222H432.014222a48.64 48.64 0 0 0-48.014222 48.014222v56.945778H287.971556a31.971556 31.971556 0 0 1-31.971556-32.028444v-296.96h128v48.014222c0.341333 26.396444 21.617778 47.672889 48.014222 48.014222z m31.971556-192h480.028444c8.817778 0 15.985778 7.168 15.985778 15.985778v96.028444a15.985778 15.985778 0 0 1-15.985778 15.985778H463.985778a15.985778 15.985778 0 0 1-15.985778-15.985778V463.985778c0-8.817778 7.168-15.985778 15.985778-15.985778z m-384-384h480.028444c8.817778 0 15.985778 7.168 15.985778 15.985778v96.028444a15.985778 15.985778 0 0 1-15.985778 15.985778H79.985778a15.985778 15.985778 0 0 1-15.985778-15.985778V79.985778c0-8.817778 7.168-15.985778 15.985778-15.985778z m384 768h480.028444c8.817778 0 15.985778 7.168 15.985778 15.985778v96.028444a15.985778 15.985778 0 0 1-15.985778 15.985778H463.985778a15.985778 15.985778 0 0 1-15.985778-15.985778v-96.028444c0-8.817778 7.168-15.985778 15.985778-15.985778z" fill="#7F7F7F" p-id="5472"></path></svg>